<svg width="20" height="16" viewBox="0 0 20 16" fill="none" xmlns="http://www.w3.org/2000/svg">
<path d="M18.8637 0.575012H1.13641C0.759277 0.575012 0.45459 0.876653 0.45459 1.25001V14.75C0.45459 15.1234 0.759277 15.425 1.13641 15.425H18.8637C19.2408 15.425 19.5455 15.1234 19.5455 14.75V1.25001C19.5455 0.876653 19.2408 0.575012 18.8637 0.575012ZM18.0114 2.9122V13.9063H1.98868V2.9122L1.40061 2.45868L2.23797 1.39345L3.1499 2.09587H16.8523L17.7642 1.39345L18.6016 2.45868L18.0114 2.9122V2.9122ZM16.8523 2.09376L10 7.3672L3.14777 2.09376L2.23584 1.39134L1.39848 2.45658L1.98655 2.91009L9.26496 8.51259C9.47428 8.67358 9.73179 8.76097 9.99685 8.76097C10.2619 8.76097 10.5194 8.67358 10.7287 8.51259L18.0114 2.9122L18.5995 2.45868L17.7621 1.39345L16.8523 2.09376Z" fill="#EEEEEE"/>
</svg>
